<svg width="64" height="58" viewBox="0 0 64 58" fill="none" xmlns="http://www.w3.org/2000/svg">
<path d="M48.1562 22.0813H51.4758C53.9625 22.0813 55.98 24.0988 55.98 26.5855V33.9284C55.98 36.4151 53.9625 38.4326 51.4758 38.4326H48.1562V22.093V22.0813Z" stroke="#FF0000" stroke-width="3" stroke-linecap="round" stroke-linejoin="round"/>
<path d="M38.4219 22.5271V37.0485C38.4219 37.811 37.8119 38.4209 37.0495 38.4209H13.1091C12.3467 38.4209 11.7367 37.811 11.7367 37.0485V22.5271C11.7367 16.5684 16.5694 11.7357 22.5281 11.7357L27.6305 11.7357C33.5892 11.7357 38.4219 16.5684 38.4219 22.5271Z" stroke="#FF0000" stroke-width="3" stroke-linecap="round" stroke-linejoin="round"/>
<path d="M20.6737 2H29.4945C39.7932 2 48.1683 10.3633 48.1683 20.6737V42.4676C48.1683 45.6112 45.6229 48.1565 42.4793 48.1565H7.68892C4.54535 48.1565 2 45.6112 2 42.4676V20.6737C2 10.3633 10.3633 2 20.6737 2Z" stroke="black" stroke-width="3" stroke-linecap="round" stroke-linejoin="round"/>
<path d="M30.6445 48.1565H58.1977C60.1448 48.1565 61.7166 49.7283 61.7166 51.6754V56.2383" stroke="black" stroke-width="3" stroke-linecap="round" stroke-linejoin="round"/>
</svg>
