<svg width="44" height="49" viewBox="0 0 44 49" fill="none" xmlns="http://www.w3.org/2000/svg">
<path d="M29.2125 27.5942L15.043 36.3212" stroke="#FF0000" stroke-width="3" stroke-linecap="round" stroke-linejoin="round"/>
<path d="M15.418 12.4278L29.0948 20.0521" stroke="#FF0000" stroke-width="3" stroke-linecap="round" stroke-linejoin="round"/>
<path d="M8.66249 46.9132C12.3421 46.9132 15.325 43.9303 15.325 40.2508C15.325 36.5712 12.3421 33.5883 8.66249 33.5883C4.98289 33.5883 2 36.5712 2 40.2508C2 43.9303 4.98289 46.9132 8.66249 46.9132Z" stroke="black" stroke-width="3" stroke-linecap="round" stroke-linejoin="round"/>
<path d="M35.5805 30.3391C39.26 30.3391 42.243 27.3562 42.243 23.6766C42.243 19.997 39.26 17.0141 35.5805 17.0141C31.9009 17.0141 28.918 19.997 28.918 23.6766C28.918 27.3562 31.9009 30.3391 35.5805 30.3391Z" stroke="black" stroke-width="3" stroke-linecap="round" stroke-linejoin="round"/>
<path d="M8.66249 15.325C12.3421 15.325 15.325 12.3421 15.325 8.66249C15.325 4.9829 12.3421 2 8.66249 2C4.98289 2 2 4.9829 2 8.66249C2 12.3421 4.98289 15.325 8.66249 15.325Z" stroke="black" stroke-width="3" stroke-linecap="round" stroke-linejoin="round"/>
</svg>
