<svg width="50" height="50" viewBox="0 0 50 50" fill="none" xmlns="http://www.w3.org/2000/svg">
<path d="M35.6312 41.5176C38.1447 41.5176 40.1824 39.4799 40.1824 36.9664C40.1824 34.4529 38.1447 32.4153 35.6312 32.4153C33.1177 32.4153 31.0801 34.4529 31.0801 36.9664C31.0801 39.4799 33.1177 41.5176 35.6312 41.5176Z" stroke="#FF0000" stroke-width="3" stroke-linecap="round" stroke-linejoin="round"/>
<path d="M42.2447 2H7.9118C4.64681 2 2 4.6468 2 7.91179V42.2447C2 45.5097 4.64681 48.1565 7.9118 48.1565H42.2447C45.5097 48.1565 48.1565 45.5097 48.1565 42.2447V7.91179C48.1565 4.6468 45.5097 2 42.2447 2Z" stroke="black" stroke-width="3" stroke-linecap="round" stroke-linejoin="round"/>
<path d="M9.77734 9.33109H39.6296" stroke="#FF0000" stroke-width="3" stroke-linecap="round" stroke-linejoin="round"/>
<path d="M9.77734 17.1314H39.6296" stroke="black" stroke-width="3" stroke-linecap="round" stroke-linejoin="round"/>
<path d="M9.77734 24.9317H39.6296" stroke="black" stroke-width="3" stroke-linecap="round" stroke-linejoin="round"/>
<path d="M9.77734 32.7436H24.7093" stroke="black" stroke-width="3" stroke-linecap="round" stroke-linejoin="round"/>
<path d="M9.77734 40.5439H24.7093" stroke="black" stroke-width="3" stroke-linecap="round" stroke-linejoin="round"/>
</svg>
