<svg width="50" height="50" viewBox="0 0 50 50" fill="none" xmlns="http://www.w3.org/2000/svg">
<path d="M2 15.7942H48.1565" stroke="#FF0000" stroke-width="3" stroke-linecap="round" stroke-linejoin="round"/>
<path d="M8.37109 9.33109H13.3914" stroke="#FF0000" stroke-width="3" stroke-linecap="round" stroke-linejoin="round"/>
<path d="M42.2447 2H7.9118C4.64681 2 2 4.6468 2 7.91179V42.2447C2 45.5097 4.64681 48.1565 7.9118 48.1565H42.2447C45.5097 48.1565 48.1565 45.5097 48.1565 42.2447V7.91179C48.1565 4.6468 45.5097 2 42.2447 2Z" stroke="black" stroke-width="3" stroke-linecap="round" stroke-linejoin="round"/>
<path d="M8.37109 23.9698H14.494" stroke="black" stroke-width="3" stroke-linecap="round" stroke-linejoin="round"/>
<path d="M21.7891 23.9698H27.9237" stroke="black" stroke-width="3" stroke-linecap="round" stroke-linejoin="round"/>
<path d="M35.2188 23.9698H41.3534" stroke="black" stroke-width="3" stroke-linecap="round" stroke-linejoin="round"/>
<path d="M8.37109 31.8288H14.494" stroke="black" stroke-width="3" stroke-linecap="round" stroke-linejoin="round"/>
<path d="M21.7891 31.8288H27.9237" stroke="black" stroke-width="3" stroke-linecap="round" stroke-linejoin="round"/>
<path d="M35.2188 31.8288H41.3534" stroke="black" stroke-width="3" stroke-linecap="round" stroke-linejoin="round"/>
<path d="M8.37109 39.6877H14.494" stroke="black" stroke-width="3" stroke-linecap="round" stroke-linejoin="round"/>
<path d="M21.7891 39.6877H27.9237" stroke="black" stroke-width="3" stroke-linecap="round" stroke-linejoin="round"/>
<path d="M35.2188 39.6877H41.3534" stroke="black" stroke-width="3" stroke-linecap="round" stroke-linejoin="round"/>
</svg>
