<svg width="58" height="47" viewBox="0 0 58 47" fill="none" xmlns="http://www.w3.org/2000/svg">
<path d="M26.4032 4.81376C26.4032 6.92004 20.7165 8.62752 13.7016 8.62752C6.68671 8.62752 1 6.92004 1 4.81376M26.4032 4.81376C26.4032 2.70748 20.7165 1 13.7016 1C6.68671 1 1 2.70748 1 4.81376M26.4032 4.81376V42.1862C26.4032 44.2904 20.7188 46 13.7016 46C6.68443 46 1 44.2904 1 42.1862V4.81376M26.4032 12.6087C26.4032 14.7128 20.7188 16.4224 13.7016 16.4224C6.68443 16.4224 1 14.7128 1 12.6087M26.4032 20.3916C26.4032 22.4957 20.7188 24.2054 13.7016 24.2054C6.68443 24.2054 1 22.4957 1 20.3916M26.4032 28.1626C26.4032 30.2667 20.7188 31.9764 13.7016 31.9764C6.68443 31.9764 1 30.2667 1 28.1626M26.4032 35.9455C26.4032 38.0497 20.7188 39.7593 13.7016 39.7593C6.68443 39.7593 1 38.0497 1 35.9455" stroke="#FF0000" stroke-linecap="round" stroke-linejoin="round"/>
<path d="M56.8876 9.16862C56.8876 11.2749 51.2009 12.9824 44.186 12.9824C37.1711 12.9824 31.4844 11.2749 31.4844 9.16862M56.8876 9.16862C56.8876 7.06234 51.2009 5.35486 44.186 5.35486C37.1711 5.35486 31.4844 7.06234 31.4844 9.16862M56.8876 9.16862V39.283C56.8876 41.3872 51.2032 43.0968 44.186 43.0968C37.1688 43.0968 31.4844 41.3872 31.4844 39.283V9.16862M56.8876 16.9635C56.8876 19.0677 51.2032 20.7773 44.186 20.7773C37.1688 20.7773 31.4844 19.0677 31.4844 16.9635M56.8876 24.7465C56.8876 26.8506 51.2032 28.5602 44.186 28.5602C37.1688 28.5602 31.4844 26.8506 31.4844 24.7465M56.8876 32.5175C56.8876 34.6216 51.2032 36.3312 44.186 36.3312C37.1688 36.3312 31.4844 34.6216 31.4844 32.5175" stroke="white" stroke-linecap="round" stroke-linejoin="round"/>
</svg>
