<svg width="54" height="47" viewBox="0 0 54 47" fill="none" xmlns="http://www.w3.org/2000/svg">
<path d="M8.14014 32.8501H45.6401" stroke="black" stroke-width="3" stroke-linecap="round" stroke-linejoin="round"/>
<path d="M8.13998 45.1301C11.531 45.1301 14.28 42.3811 14.28 38.9901C14.28 35.5991 11.531 32.8501 8.13998 32.8501C4.74896 32.8501 2 35.5991 2 38.9901C2 42.3811 4.74896 45.1301 8.13998 45.1301Z" stroke="black" stroke-width="3" stroke-linecap="round" stroke-linejoin="round"/>
<path d="M45.64 45.1301C49.031 45.1301 51.78 42.3811 51.78 38.9901C51.78 35.5991 49.031 32.8501 45.64 32.8501C42.249 32.8501 39.5 35.5991 39.5 38.9901C39.5 42.3811 42.249 45.1301 45.64 45.1301Z" stroke="black" stroke-width="3" stroke-linecap="round" stroke-linejoin="round"/>
<path d="M32.48 2L21.48 26.44H31.4L34.28 19.25H37.07L39.94 26.44H49.87L38.87 2H32.48Z" stroke="#FF0000" stroke-width="3" stroke-linecap="round" stroke-linejoin="round"/>
<path d="M2 2H5.19L16.2 26.44H6.26999L3.39999 19.25H2" stroke="#FF0000" stroke-width="3" stroke-linecap="round" stroke-linejoin="round"/>
</svg>
