<svg width="41" height="45" viewBox="0 0 41 45" fill="none" xmlns="http://www.w3.org/2000/svg">
<path d="M8.06 14.1201V30.7601" stroke="#FF0000" stroke-width="3" stroke-linecap="round" stroke-linejoin="round"/>
<path d="M26.76 25.3L13.86 33.24" stroke="#FF0000" stroke-width="3" stroke-linecap="round" stroke-linejoin="round"/>
<path d="M14.22 11.49L26.67 18.43" stroke="#FF0000" stroke-width="3" stroke-linecap="round" stroke-linejoin="round"/>
<path d="M8.06 42.88C11.4068 42.88 14.12 40.1669 14.12 36.82C14.12 33.4732 11.4068 30.76 8.06 30.76C4.71315 30.76 2 33.4732 2 36.82C2 40.1669 4.71315 42.88 8.06 42.88Z" stroke="black" stroke-width="3" stroke-linecap="round" stroke-linejoin="round"/>
<path d="M32.57 27.7899C35.9168 27.7899 38.63 25.0768 38.63 21.7299C38.63 18.3831 35.9168 15.6699 32.57 15.6699C29.2231 15.6699 26.51 18.3831 26.51 21.7299C26.51 25.0768 29.2231 27.7899 32.57 27.7899Z" stroke="black" stroke-width="3" stroke-linecap="round" stroke-linejoin="round"/>
<path d="M8.06 14.12C11.4068 14.12 14.12 11.4068 14.12 8.06C14.12 4.71315 11.4068 2 8.06 2C4.71315 2 2 4.71315 2 8.06C2 11.4068 4.71315 14.12 8.06 14.12Z" stroke="black" stroke-width="3" stroke-linecap="round" stroke-linejoin="round"/>
</svg>
