<svg width="47" height="46" viewBox="0 0 47 46" fill="none" xmlns="http://www.w3.org/2000/svg">
<path d="M44.54 28.36V6.16C44.54 3.86 42.68 2 40.38 2H6.16C3.86 2 2 3.86 2 6.16V28.36C2 29.76 2.71 31.07 3.88 31.84L20.99 43.04C22.37 43.95 24.16 43.95 25.55 43.04L42.66 31.84C43.83 31.07 44.54 29.76 44.54 28.36Z" stroke="white" stroke-width="3" stroke-linecap="round" stroke-linejoin="round"/>
<path d="M23.27 36.78L36.17 28.33C37.34 27.56 38.05 26.25 38.05 24.85V17.99" stroke="white" stroke-width="3" stroke-linecap="round" stroke-linejoin="round"/>
<path d="M8.49023 19.54V12.64C8.49023 10.34 10.3502 8.47998 12.6502 8.47998H15.1902" stroke="white" stroke-width="3" stroke-linecap="round" stroke-linejoin="round"/>
</svg>
