<svg width="185" height="35" viewBox="0 0 185 35" fill="none" xmlns="http://www.w3.org/2000/svg">
<path d="M58.6943 19.2116H53.3496C53.3075 19.3708 53.242 19.6516 53.139 20.0353C53.0173 20.4331 52.9144 20.845 52.7787 21.2802C52.657 21.7295 52.554 22.1414 52.4464 22.5251C52.3528 22.9089 52.2732 23.1897 52.2217 23.3488H48.9316L54.4916 4.11375H57.5289L63.1122 23.3488H59.7707L58.6943 19.2116ZM55.0344 12.5145L54.0376 16.3896H57.9642L56.9954 12.5425C56.9673 12.3834 56.9018 12.1026 56.8222 11.7189C56.7427 11.3351 56.6491 10.9232 56.5414 10.4974C56.4338 10.0715 56.3402 9.67367 56.2513 9.30394C56.1577 8.92018 56.1062 8.65341 56.0921 8.48025H55.9471L55.0298 12.5145H55.0344ZM76.75 10.0621C76.75 10.8858 76.6283 11.6674 76.3896 12.3834C76.1369 13.0995 75.7905 13.7219 75.3132 14.2695C74.8499 14.7983 74.2508 15.2242 73.5347 15.5284C72.8187 15.8186 71.9716 15.9777 71.0122 15.9777H68.1995V23.3535H65.0404V4.11375H70.8531C71.7563 4.11375 72.566 4.23543 73.282 4.47411C73.9981 4.7128 74.6205 5.07316 75.14 5.55989C75.6595 6.0513 76.0573 6.67375 76.3194 7.41788C76.6002 8.16201 76.7453 9.03718 76.7453 10.0574L76.75 10.0621ZM73.619 9.99659C73.619 9.04186 73.3944 8.31177 72.931 7.80632C72.4677 7.30087 71.7657 7.04815 70.8344 7.04815H68.2088V12.9918H70.8624C71.8031 12.9918 72.4958 12.711 72.9451 12.1822C73.3944 11.6393 73.6237 10.9092 73.6237 9.99191L73.619 9.99659ZM84.6827 6.98731V23.3488H81.5236V6.97795H77.2928V4.11375H88.9415V6.97795H84.6827V6.98731ZM90.4672 17.466V14.7328H98.7042V17.466H90.4672ZM113.722 23.3582V12.0979H113.601L112.197 15.6922L110.367 19.8996H108.125L106.253 15.5612L104.872 12.0699L104.751 12.0979V23.3488H101.606V4.11375H104.615L107.32 10.4131L109.206 15.0557H109.314L111.172 10.385L113.825 4.10907H116.863V23.3488H113.718L113.722 23.3582ZM128.343 19.221H123.008C122.966 19.3801 122.9 19.6609 122.783 20.0447C122.675 20.4425 122.558 20.8543 122.437 21.2896C122.315 21.7389 122.212 22.1507 122.104 22.5345C122.011 22.9183 121.931 23.1991 121.866 23.3582H118.576L124.136 4.12311H127.187L132.77 23.3582H129.429L128.343 19.221ZM124.693 12.5238L123.696 16.3989H127.622L126.654 12.5519C126.611 12.3928 126.56 12.112 126.48 11.7282C126.387 11.3445 126.293 10.9326 126.2 10.5067C126.092 10.0808 125.998 9.68303 125.909 9.3133C125.816 8.92954 125.764 8.66277 125.736 8.48961H125.605L124.688 12.5238H124.693ZM144.461 19.2772C144.157 20.6157 143.492 21.664 142.472 22.4222C141.466 23.1663 140.244 23.536 138.798 23.536C137.801 23.536 136.94 23.3769 136.196 23.0727C135.466 22.7545 134.844 22.3145 134.352 21.7716C133.847 21.2147 133.477 20.5642 133.238 19.8201C133 19.0619 132.878 18.2663 132.878 17.3911V9.92171C132.878 9.16354 133 8.43813 133.238 7.7174C133.477 6.98731 133.847 6.36486 134.338 5.80793C134.816 5.25101 135.438 4.81108 136.168 4.48347C136.912 4.15119 137.787 3.97803 138.794 3.97803C140.347 3.97803 141.606 4.38987 142.575 5.19952C143.544 6.00918 144.18 7.02943 144.499 8.23689L141.475 9.23374C141.424 8.95294 141.33 8.69086 141.194 8.43813C141.073 8.17137 140.904 7.94672 140.675 7.73612C140.45 7.52552 140.184 7.35236 139.865 7.21663C139.561 7.08559 139.201 7.02943 138.789 7.02943C138.312 7.02943 137.9 7.10899 137.553 7.26811C137.221 7.44128 136.931 7.65188 136.716 7.91864C136.491 8.18541 136.332 8.48961 136.21 8.8219C136.103 9.15418 136.051 9.48647 136.051 9.81875V17.4753C136.051 17.8872 136.103 18.271 136.21 18.6407C136.332 19.0104 136.491 19.3286 136.73 19.6095C136.954 19.8903 137.249 20.1009 137.577 20.26C137.923 20.4191 138.321 20.4987 138.784 20.4987C139.472 20.4987 140.043 20.2974 140.521 19.9137C141.012 19.5299 141.316 18.987 141.438 18.3084L144.447 19.2772H144.461ZM154.065 6.99199V23.3488H150.906V6.97795H146.675V4.11375H158.324V6.97795H154.065V6.99199ZM160.233 23.3629V4.11375H170.927V7.04347H163.378V12.1775H169.879V15.0557H163.378V20.3629H170.927V23.3488H160.233V23.3629ZM185 10.0715C185 10.8952 184.878 11.6767 184.64 12.3928C184.401 13.1088 184.041 13.7313 183.577 14.2789C183.1 14.8077 182.515 15.2336 181.785 15.5378C181.069 15.828 180.231 15.9871 179.276 15.9871H176.449V23.3629H173.304V4.11375H179.103C180.006 4.11375 180.816 4.23543 181.546 4.47411C182.262 4.7128 182.87 5.07316 183.39 5.55989C183.909 6.0513 184.307 6.67375 184.583 7.41788C184.859 8.16201 184.995 9.03718 184.995 10.0574L185 10.0715ZM181.883 10.006C181.883 9.05122 181.644 8.32113 181.195 7.81568C180.732 7.31024 180.03 7.05751 179.084 7.05751H176.459V13.0012H179.112C180.053 13.0012 180.755 12.7204 181.209 12.1915C181.658 11.6487 181.888 10.9186 181.888 10.0013L181.883 10.006Z" fill="#141515"/>
<path d="M52.2452 33.2988V28.2724H48.6884V33.2988H49.4559V28.9603H51.487V33.2988H52.2452ZM57.1406 29.7981C57.1406 28.8948 56.476 28.2724 55.5213 28.2724H53.6258V33.2988H54.384V31.3238H55.5259C56.4807 31.3238 57.1452 30.7013 57.1452 29.7981H57.1406ZM56.373 29.7981C56.373 30.3176 56.0267 30.6358 55.4838 30.6358H54.384V28.965H55.4838C56.0267 28.965 56.373 29.2833 56.373 29.8027V29.7981ZM61.5585 30.4346C61.5585 29.7185 61.4509 29.1616 61.0671 28.7778C60.7208 28.4315 60.2575 28.2349 59.7427 28.2349C59.2279 28.2349 58.7739 28.4362 58.4276 28.7778C58.0017 29.1897 57.9362 29.7325 57.9362 30.5562V30.8885C57.9362 31.6327 57.9362 32.3206 58.4276 32.812C58.7739 33.1584 59.2232 33.3409 59.7427 33.3409C60.2622 33.3409 60.7255 33.1537 61.0671 32.812C61.5445 32.3206 61.5585 31.6841 61.5585 30.8604V30.4346ZM60.791 30.7388C60.791 31.5858 60.791 32.0398 60.4868 32.344C60.2996 32.5546 60.0375 32.6623 59.7427 32.6623C59.4478 32.6623 59.1998 32.5546 58.9985 32.344C58.7177 32.0773 58.7084 31.5999 58.7084 31.0991V30.6592C58.7084 30.0227 58.7084 29.5173 58.9985 29.2271C59.1998 29.0259 59.4619 28.9229 59.7427 28.9229C60.0235 28.9229 60.2856 29.0305 60.4868 29.2271C60.777 29.5173 60.791 29.9853 60.791 30.7388ZM66.4445 33.2988V28.2724H65.7566L63.5148 31.9228V28.2724H62.7473V33.2988H63.4352L65.691 29.6483V33.2988H66.4492H66.4445ZM69.2713 33.3409C70.2681 33.3409 71.0076 32.7699 71.0076 31.8807C71.0076 31.2957 70.7174 30.8979 70.2401 30.7013C70.68 30.4907 70.928 30.1163 70.928 29.6015C70.928 28.7638 70.2401 28.2349 69.2947 28.2349C68.3493 28.2349 67.6754 28.7778 67.5022 29.7747H68.2698C68.3914 29.2552 68.7331 28.8995 69.276 28.8995C69.8189 28.8995 70.1511 29.1663 70.1511 29.6577C70.1511 30.1491 69.861 30.4158 69.3555 30.4158H68.691V31.0523H69.3415C69.9125 31.0523 70.2307 31.3425 70.2307 31.862C70.2307 32.3815 69.8329 32.6857 69.276 32.6857C68.719 32.6857 68.3727 32.3253 68.2557 31.8245H67.4882C67.6613 32.8073 68.3634 33.3502 69.2666 33.3502L69.2713 33.3409ZM75.7438 31.8947C75.7438 31.3238 75.4771 30.954 74.9857 30.7294C75.4256 30.5048 75.6643 30.1444 75.6643 29.6296C75.6643 28.8199 75.0652 28.277 74.1386 28.277H72.187V33.3034H74.2181C75.1588 33.3034 75.7438 32.7605 75.7438 31.8994V31.8947ZM74.8967 29.6811C74.8967 30.1303 74.5925 30.3971 74.0871 30.3971H72.9592V28.965H74.0871C74.5925 28.965 74.8967 29.2318 74.8967 29.6811ZM74.9763 31.8433C74.9763 32.3206 74.6581 32.6108 74.1386 32.6108H72.9592V31.0851H74.1386C74.6581 31.0851 74.9763 31.3752 74.9763 31.8433ZM80.3631 30.4392C80.3631 29.7232 80.2695 29.1663 79.8716 28.7825C79.5253 28.4362 79.076 28.2396 78.5472 28.2396C78.0183 28.2396 77.5784 28.4408 77.2321 28.7825C76.8062 29.1943 76.7407 29.7372 76.7407 30.5609V30.8932C76.7407 31.6373 76.7547 32.3253 77.2321 32.8167C77.5784 33.163 78.0277 33.3456 78.5472 33.3456C79.0667 33.3456 79.53 33.1584 79.8716 32.8167C80.3631 32.3253 80.3631 31.6888 80.3631 30.8651V30.4392ZM79.5955 30.7434C79.5955 31.5905 79.5955 32.0445 79.3054 32.3487C79.1041 32.5593 78.8561 32.6669 78.5472 32.6669C78.2664 32.6669 78.0183 32.5593 77.8031 32.3487C77.5363 32.0819 77.5129 31.6046 77.5129 31.1038V30.6639C77.5129 30.0274 77.5269 29.5219 77.8031 29.2318C78.0043 29.0305 78.2664 28.9276 78.5472 28.9276C78.828 28.9276 79.1041 29.0352 79.3054 29.2318C79.5862 29.5219 79.5955 29.9899 79.5955 30.7434ZM82.6984 28.965H84.1024V32.6155H82.207C82.5767 31.9135 82.6984 31.0523 82.6984 30.0835V28.9697V28.965ZM81.9683 28.277V29.7606C81.9683 30.954 81.7952 31.9369 81.3599 32.6108H80.92V34.4266H81.6641V33.2988H84.7015V34.4266H85.4596V32.6108H84.8606V28.2724H81.9683V28.277ZM89.8215 31.8058H89.0539C88.9323 32.3113 88.5906 32.6669 88.0337 32.6669C87.7435 32.6669 87.4768 32.5453 87.2896 32.3627C87.0509 32.0819 86.9853 31.8058 86.9853 30.7996C86.9853 29.7934 87.0509 29.4985 87.2896 29.2365C87.4768 29.0352 87.7388 28.9323 88.0337 28.9323C88.5906 28.9323 88.9369 29.2786 89.0539 29.7934H89.8215C89.6483 28.7872 88.9603 28.2396 88.029 28.2396C87.5095 28.2396 87.0602 28.4408 86.7139 28.7825C86.2085 29.2739 86.2225 29.8308 86.2225 30.7996C86.2225 31.7684 86.2085 32.3253 86.7139 32.8167C87.0602 33.163 87.5095 33.3456 88.029 33.3456C88.9463 33.3456 89.6483 32.8027 89.8215 31.8058ZM93.9072 28.965V28.277H90.3784V28.965H91.7731V33.3034H92.5312V28.965H93.9118H93.9072ZM98.3907 31.8947C98.3907 31.3238 98.1239 30.954 97.6325 30.7294C98.0724 30.5048 98.3111 30.1444 98.3111 29.6296C98.3111 28.8199 97.7121 28.277 96.7854 28.277H94.8338V33.3034H96.865C97.8057 33.3034 98.3907 32.7605 98.3907 31.8994V31.8947ZM97.5436 29.6811C97.5436 30.1303 97.2394 30.3971 96.7339 30.3971H95.606V28.965H96.7339C97.2394 28.965 97.5436 29.2318 97.5436 29.6811ZM97.6231 31.8433C97.6231 32.3206 97.3049 32.6108 96.7854 32.6108H95.606V31.0851H96.7854C97.3049 31.0851 97.6231 31.3752 97.6231 31.8433ZM103.01 30.4392C103.01 29.7232 102.916 29.1663 102.518 28.7825C102.172 28.4362 101.723 28.2396 101.194 28.2396C100.665 28.2396 100.225 28.4408 99.8789 28.7825C99.453 29.1943 99.3875 29.7372 99.3875 30.5609V30.8932C99.3875 31.6373 99.4016 32.3253 99.8789 32.8167C100.225 33.163 100.675 33.3456 101.194 33.3456C101.714 33.3456 102.177 33.1584 102.518 32.8167C103.01 32.3253 103.01 31.6888 103.01 30.8651V30.4392ZM102.242 30.7434C102.242 31.5905 102.242 32.0445 101.952 32.3487C101.751 32.5593 101.503 32.6669 101.194 32.6669C100.913 32.6669 100.665 32.5593 100.45 32.3487C100.183 32.0819 100.16 31.6046 100.16 31.1038V30.6639C100.16 30.0274 100.174 29.5219 100.45 29.2318C100.651 29.0305 100.913 28.9276 101.194 28.9276C101.475 28.9276 101.751 29.0352 101.952 29.2318C102.233 29.5219 102.242 29.9899 102.242 30.7434ZM111.874 33.3034V28.277H111.106V30.4392H109.075V28.277H108.308V33.3034H109.075V31.1132H111.106V33.3034H111.874ZM116.928 33.3034L115.099 28.277H114.476L112.646 33.3034H113.442L113.802 32.2972H115.777L116.137 33.3034H116.933H116.928ZM115.576 31.6467H114.013L114.808 29.419L115.576 31.6467ZM121.215 29.8027C121.215 28.8995 120.565 28.277 119.61 28.277H117.715V33.3034H118.473V31.3284H119.615C120.57 31.3284 121.22 30.706 121.22 29.8027H121.215ZM120.457 29.8027C120.457 30.3222 120.111 30.6405 119.554 30.6405H118.468V28.9697H119.554C120.111 28.9697 120.457 29.2879 120.457 29.8074V29.8027ZM125.484 28.277H124.674L123.598 30.9681L122.39 28.277H121.594L123.228 31.8058L123.041 32.2177C122.933 32.4844 122.76 32.6155 122.456 32.6155H122.095V33.3034H122.615C123.158 33.3034 123.476 32.9431 123.677 32.4797L125.484 28.2724V28.277ZM126.518 33.3034L128.441 30.6779V33.3034H129.209V30.6779L131.146 33.3034H132.101L130.056 30.6498L131.914 28.277H130.987L129.209 30.6639V28.277H128.441V30.6639L126.663 28.277H125.736L127.608 30.6498L125.554 33.3034H126.523H126.518ZM136.346 33.3034V28.277H135.578V30.4392H133.547V28.277H132.789V33.3034H133.547V31.1132H135.578V33.3034H136.346ZM141.148 30.4392C141.148 29.7232 141.054 29.1663 140.656 28.7825C140.31 28.4362 139.861 28.2396 139.332 28.2396C138.803 28.2396 138.363 28.4408 138.017 28.7825C137.591 29.1943 137.525 29.7372 137.525 30.5609V30.8932C137.525 31.6373 137.539 32.3253 138.017 32.8167C138.363 33.163 138.812 33.3456 139.332 33.3456C139.851 33.3456 140.315 33.1584 140.656 32.8167C141.134 32.3253 141.148 31.6888 141.148 30.8651V30.4392ZM140.38 30.7434C140.38 31.5905 140.38 32.0445 140.09 32.3487C139.889 32.5593 139.641 32.6669 139.332 32.6669C139.051 32.6669 138.789 32.5593 138.588 32.3487C138.321 32.0819 138.298 31.6046 138.298 31.1038V30.6639C138.298 30.0274 138.312 29.5219 138.588 29.2318C138.789 29.0305 139.051 28.9276 139.332 28.9276C139.613 28.9276 139.889 29.0352 140.09 29.2318C140.371 29.5219 140.38 29.9899 140.38 30.7434ZM145.276 27.0415H144.705C144.677 27.3597 144.494 27.5189 144.185 27.5189C143.876 27.5189 143.708 27.3597 143.68 27.0415H143.109C143.137 27.7295 143.614 27.9822 144.185 27.9822C144.756 27.9822 145.248 27.7295 145.271 27.0415H145.276ZM146.043 33.3034V28.277H145.341L143.099 31.9275V28.277H142.341V33.3034H143.029L145.271 29.653V33.3034H146.038H146.043ZM155.038 29.8027C155.038 28.8995 154.374 28.277 153.419 28.277H151.523V33.3034H152.282V31.3284H153.424C154.378 31.3284 155.043 30.706 155.043 29.8027H155.038ZM154.271 29.8027C154.271 30.3222 153.924 30.6405 153.381 30.6405H152.282V28.9697H153.381C153.924 28.9697 154.271 29.2879 154.271 29.8074V29.8027ZM159.232 33.3034V32.6155H156.779V31.1178H158.876V30.4392H156.779V28.965H159.232V28.277H156.021V33.3034H159.232ZM161.118 33.3034V30.6779L163.135 33.3034H164.104L161.993 30.6498L163.93 28.277H162.99L161.118 30.6639V28.277H160.35V33.3034H161.118ZM168.283 33.3034V28.277H165.339V30.4533C165.339 32.2691 164.927 32.6155 164.37 32.6155H164.239V33.3034H164.557C165.564 33.3034 166.069 32.6669 166.069 30.5562V28.965H167.515V33.3034H168.283ZM173.351 33.3034L171.521 28.277H170.899L169.069 33.3034H169.865L170.225 32.2972H172.2L172.56 33.3034H173.356H173.351ZM171.999 31.6467H170.436L171.231 29.419L171.999 31.6467ZM178.565 33.3034V28.277H177.797L176.351 31.408L174.877 28.277H174.133V33.3034H174.891V29.9478L176.07 32.3908H176.627L177.793 29.9478V33.3034H178.56H178.565ZM184.813 33.3034V28.277H184.045V33.3034H184.813ZM183.446 31.7777C183.446 30.8745 182.81 30.252 181.855 30.252H180.69V28.277H179.922V33.3034H181.86C182.8 33.3034 183.451 32.681 183.451 31.7777H183.446ZM182.679 31.7777C182.679 32.2972 182.346 32.6155 181.789 32.6155H180.69V30.9447H181.789C182.346 30.9447 182.679 31.2629 182.679 31.7824V31.7777Z" fill="#141515"/>
<path d="M28.8308 4.3384C21.6422 -2.00309 10.6675 -1.31044 4.34 5.87814C-2.00149 13.0667 -1.31352 24.0415 5.87974 30.3689C13.0683 36.7104 24.0431 36.0084 30.3705 28.8292C36.712 21.6266 36.0241 10.6659 28.8308 4.3384ZM24.2958 24.0508L22.7701 21.1305L18.5534 23.1195C18.0479 23.3582 17.4676 23.3442 16.9621 23.0914L14.814 22.0057L16.4567 18.767L17.8233 19.4691L21.0993 17.9153L17.5846 11.1619L10.8734 24.0415H6.783L15.9606 6.42103C16.1338 6.08875 16.4099 5.81262 16.7422 5.63946C17.6314 5.17613 18.7172 5.51778 19.1852 6.40699L28.3768 24.0508H24.2911H24.2958Z" fill="#EC1B23"/>
</svg>
