<svg width="89" height="22" viewBox="0 0 89 22" fill="none" xmlns="http://www.w3.org/2000/svg">
<path d="M88.2863 14.0243H81.0376V12.8242H88.2863V14.0243Z" fill="white"/>
<path d="M88.2865 6.85083V8.04019H87.6407C88.1412 8.46534 88.3941 9.03042 88.3941 9.74081C88.3941 10.2628 88.2488 10.7041 87.9636 11.0647C87.673 11.4253 87.2748 11.6083 86.7582 11.6083C86.1932 11.6083 85.768 11.4145 85.4774 11.0217C85.1868 10.6288 85.0416 10.1175 85.0416 9.48248C85.0416 8.97122 85.1169 8.48687 85.2622 8.03481H85.1653C84.7994 8.03481 84.5249 8.14782 84.3312 8.36847C84.1375 8.58912 84.0406 8.91202 84.0406 9.32641C84.0406 9.80539 84.1482 10.3005 84.3689 10.8279L83.4056 11.1562C83.115 10.505 82.9697 9.84306 82.9697 9.15958C82.9697 8.40076 83.1635 7.82492 83.5455 7.43744C83.9276 7.04995 84.4765 6.85621 85.1815 6.85621H88.2919L88.2865 6.85083ZM86.3923 8.01328H86.0963C85.9564 8.36847 85.8864 8.7721 85.8864 9.2134C85.8864 9.59012 85.9618 9.88611 86.1071 10.096C86.2524 10.3059 86.4568 10.4135 86.7205 10.4135C86.9573 10.4135 87.1457 10.3166 87.2856 10.1229C87.4255 9.92917 87.4954 9.68699 87.4954 9.39638C87.4954 8.99275 87.3932 8.65908 87.1887 8.40076C86.9842 8.13706 86.7205 8.0079 86.3923 8.0079V8.01328Z" fill="white"/>
<path d="M88.3939 2.44329C88.3939 3.16444 88.0872 3.75643 87.4683 4.21926H88.2809V5.41937H81.0322V4.21926H83.9112C83.2547 3.75643 82.9265 3.16444 82.9265 2.44329C82.9265 1.78134 83.174 1.21088 83.6691 0.72653C84.1642 0.242177 84.8315 0 85.6709 0C86.5104 0 87.1616 0.242177 87.6513 0.72653C88.1464 1.21088 88.3939 1.78134 88.3939 2.44329ZM87.3499 2.72314C87.3499 2.29799 87.1939 1.94279 86.8818 1.65756C86.5696 1.36695 86.1607 1.22703 85.6494 1.22703C85.1382 1.22703 84.7507 1.37233 84.4386 1.66295C84.1265 1.95356 83.9704 2.30875 83.9704 2.72314C83.9704 3.13753 84.1319 3.49811 84.4494 3.79948C84.7669 4.10086 85.1759 4.25155 85.6709 4.25155C86.166 4.25155 86.5643 4.10086 86.8764 3.79948C87.1885 3.49811 87.3499 3.13753 87.3499 2.72314Z" fill="white"/>
<path d="M0 17.711H0.581186V18.1362C0.807203 17.8187 1.09241 17.6572 1.4422 17.6572C1.76508 17.6572 2.03953 17.7756 2.27631 18.0178C2.51309 18.2546 2.6261 18.5829 2.6261 18.9865C2.6261 19.3901 2.50771 19.7076 2.27631 19.9498C2.04491 20.1866 1.76508 20.3104 1.4422 20.3104C1.09241 20.3104 0.807203 20.1597 0.581186 19.8637V21.0315H0V17.711ZM1.30767 19.8045C1.51216 19.8045 1.68436 19.7292 1.82428 19.5785C1.96419 19.4278 2.03415 19.2287 2.03415 18.9811C2.03415 18.7336 1.96419 18.5452 1.82428 18.3945C1.68436 18.2438 1.51216 18.1685 1.30767 18.1685C1.10318 18.1685 0.930974 18.2438 0.785677 18.3999C0.640381 18.556 0.565042 18.7497 0.565042 18.9919C0.565042 19.2341 0.640381 19.4224 0.785677 19.5785C0.930974 19.7292 1.10856 19.8099 1.30767 19.8099V19.8045Z" fill="white"/>
<path d="M5.84415 20.2512H5.26834V19.9391C5.06385 20.1812 4.7894 20.305 4.445 20.305C4.19207 20.305 3.97682 20.2351 3.80462 20.0951C3.63241 19.9552 3.54093 19.7615 3.54093 19.5085C3.54093 19.2341 3.63779 19.0295 3.82614 18.8896C4.01449 18.7497 4.26203 18.6797 4.57415 18.6797C4.82169 18.6797 5.05847 18.7174 5.27911 18.7874V18.7389C5.27911 18.5613 5.22529 18.4268 5.11767 18.3353C5.01004 18.2438 4.85398 18.1954 4.65487 18.1954C4.42347 18.1954 4.18131 18.2492 3.92839 18.3568L3.77233 17.8886C4.08445 17.7487 4.40733 17.6787 4.74097 17.6787C5.11228 17.6787 5.38673 17.7702 5.57508 17.9586C5.76343 18.1469 5.85491 18.4107 5.85491 18.7551V20.262L5.84415 20.2512ZM5.27911 19.3309V19.1856C5.1069 19.1157 4.91317 19.0834 4.69792 19.0834C4.51495 19.0834 4.36966 19.121 4.26741 19.191C4.16517 19.261 4.11135 19.3632 4.11135 19.487C4.11135 19.6 4.15979 19.6915 4.25127 19.7615C4.34275 19.8314 4.46114 19.8637 4.60106 19.8637C4.79478 19.8637 4.95623 19.8153 5.08538 19.713C5.21453 19.6162 5.27373 19.487 5.27373 19.3255L5.27911 19.3309Z" fill="white"/>
<path d="M7.88368 20.3104C7.44779 20.3104 7.07648 20.1812 6.76974 19.9229L7.04419 19.5354C7.28097 19.7399 7.55004 19.8368 7.84601 19.8368C7.98055 19.8368 8.09355 19.8045 8.18504 19.7399C8.27652 19.6754 8.32495 19.5892 8.32495 19.487C8.32495 19.3901 8.2819 19.3148 8.19042 19.2556C8.09894 19.1964 7.97517 19.1695 7.80834 19.1695H7.49622V18.7497H7.80834C7.94288 18.7497 8.0505 18.7174 8.13122 18.6582C8.21194 18.599 8.255 18.5183 8.255 18.4214C8.255 18.3353 8.21733 18.2653 8.13661 18.2115C8.05589 18.1577 7.95902 18.1308 7.83525 18.1308C7.55004 18.1308 7.31326 18.2169 7.11415 18.3891L6.85584 18.0232C7.13567 17.781 7.48008 17.6572 7.88906 17.6572C8.16889 17.6572 8.39491 17.7218 8.57249 17.851C8.75008 17.9801 8.83618 18.1416 8.83618 18.3407C8.83618 18.6098 8.70165 18.8035 8.43796 18.9165C8.7447 19.0242 8.90076 19.2287 8.90076 19.5354C8.90076 19.7561 8.80389 19.9391 8.61555 20.0897C8.4272 20.2404 8.17966 20.3158 7.8783 20.3158L7.88368 20.3104Z" fill="white"/>
<path d="M9.99317 17.711H10.5744V18.1362C10.8004 17.8187 11.0856 17.6572 11.4354 17.6572C11.7583 17.6572 12.0327 17.7756 12.2695 18.0178C12.5063 18.2546 12.6193 18.5829 12.6193 18.9865C12.6193 19.3901 12.5009 19.7076 12.2695 19.9498C12.0381 20.1866 11.7583 20.3104 11.4354 20.3104C11.0856 20.3104 10.8004 20.1597 10.5744 19.8637V21.0315H9.99317V17.711ZM11.3008 19.8045C11.5053 19.8045 11.6775 19.7292 11.8175 19.5785C11.9574 19.4278 12.0273 19.2287 12.0273 18.9811C12.0273 18.7336 11.9574 18.5452 11.8175 18.3945C11.6775 18.2438 11.5053 18.1685 11.3008 18.1685C11.0963 18.1685 10.9241 18.2438 10.7788 18.3999C10.6336 18.556 10.5582 18.7497 10.5582 18.9919C10.5582 19.2341 10.6336 19.4224 10.7788 19.5785C10.9241 19.7292 11.1017 19.8099 11.3008 19.8099V19.8045Z" fill="white"/>
<path d="M15.8373 20.2512H15.2615V19.9391C15.057 20.1812 14.7826 20.305 14.4382 20.305C14.1852 20.305 13.97 20.2351 13.7978 20.0951C13.6256 19.9552 13.5341 19.7615 13.5341 19.5085C13.5341 19.2341 13.631 19.0295 13.8193 18.8896C14.0077 18.7497 14.2552 18.6797 14.5673 18.6797C14.8149 18.6797 15.0516 18.7174 15.2723 18.7874V18.7389C15.2723 18.5613 15.2185 18.4268 15.1108 18.3353C15.0032 18.2438 14.8471 18.1954 14.648 18.1954C14.4166 18.1954 14.1745 18.2492 13.9216 18.3568L13.7655 17.8886C14.0776 17.7487 14.4005 17.6787 14.7341 17.6787C15.1055 17.6787 15.3799 17.7702 15.5683 17.9586C15.7566 18.1469 15.8481 18.4107 15.8481 18.7551V20.262L15.8373 20.2512ZM15.2723 19.3309V19.1856C15.1001 19.1157 14.9063 19.0834 14.6911 19.0834C14.5081 19.0834 14.3628 19.121 14.2606 19.191C14.1583 19.261 14.1045 19.3632 14.1045 19.487C14.1045 19.6 14.153 19.6915 14.2444 19.7615C14.3359 19.8314 14.4543 19.8637 14.5942 19.8637C14.788 19.8637 14.9494 19.8153 15.0785 19.713C15.2077 19.6162 15.2669 19.487 15.2669 19.3255L15.2723 19.3309Z" fill="white"/>
<path d="M18.2428 20.3104C17.8338 20.3104 17.5109 20.1812 17.2795 19.9229C17.0481 19.6646 16.9351 19.2986 16.9351 18.8304C16.9351 18.6797 16.9351 18.5452 16.9459 18.4322C16.9513 18.3192 16.9674 18.1954 16.9943 18.0608C17.0158 17.9263 17.0535 17.8133 17.0966 17.711C17.145 17.6142 17.2042 17.5173 17.2741 17.4258C17.3441 17.3343 17.441 17.259 17.554 17.1944C17.667 17.1298 17.8015 17.0868 17.9522 17.0545L19.3406 16.7639L19.4374 17.2321L18.0491 17.5334C17.8177 17.5819 17.6508 17.668 17.554 17.7918C17.4517 17.9155 17.3979 18.0716 17.3818 18.2546C17.4571 18.1254 17.5809 18.0124 17.7477 17.9209C17.9145 17.824 18.119 17.781 18.3612 17.781C18.6894 17.781 18.9746 17.8994 19.2168 18.1416C19.4536 18.3784 19.5774 18.6744 19.5774 19.0188C19.5774 19.3632 19.4536 19.6807 19.2007 19.9337C18.9477 20.1866 18.6356 20.3158 18.2535 20.3158L18.2428 20.3104ZM18.2535 19.8045C18.4688 19.8045 18.6464 19.7292 18.7809 19.5785C18.9155 19.4278 18.9854 19.2448 18.9854 19.0242C18.9854 18.8035 18.9155 18.6205 18.7702 18.4699C18.6249 18.3192 18.4527 18.2438 18.2428 18.2438C18.0329 18.2438 17.8553 18.3192 17.7208 18.4699C17.5863 18.6205 17.5163 18.8089 17.5163 19.0295C17.5163 19.2502 17.5863 19.4332 17.7262 19.5839C17.8661 19.7346 18.0437 19.8099 18.2482 19.8099L18.2535 19.8045Z" fill="white"/>
<path d="M21.8537 20.3104C21.4662 20.3104 21.1487 20.1812 20.8904 19.9229C20.6321 19.6646 20.5029 19.3525 20.5029 18.9811C20.5029 18.6098 20.6321 18.2976 20.8904 18.0393C21.1487 17.781 21.4716 17.6518 21.859 17.6518C22.2465 17.6518 22.564 17.781 22.8223 18.0393C23.0806 18.2976 23.2098 18.6098 23.2098 18.9811C23.2098 19.3525 23.0806 19.6592 22.8223 19.9175C22.564 20.1759 22.2357 20.305 21.8483 20.305L21.8537 20.3104ZM21.8644 19.8045C22.0958 19.8045 22.2842 19.7238 22.4241 19.5677C22.564 19.4117 22.634 19.2179 22.634 18.9865C22.634 18.7551 22.5586 18.5667 22.4133 18.4053C22.268 18.2492 22.0797 18.1685 21.8537 18.1685C21.6277 18.1685 21.4393 18.2492 21.2994 18.4053C21.1595 18.5613 21.0895 18.7551 21.0895 18.9865C21.0895 19.2179 21.1649 19.4063 21.3102 19.5623C21.4554 19.7238 21.6438 19.8045 21.8644 19.8045Z" fill="white"/>
<path d="M24.7381 20.2512V18.2062H23.9201V17.7057H26.1426V18.2062H25.3246V20.2512H24.7381Z" fill="white"/>
<path d="M27.0843 20.2512V17.7057H27.6602V18.9219L28.7687 17.7057H29.4521L28.4674 18.7766L29.5382 20.2512H28.8494L28.0799 19.2018L27.6655 19.6377V20.2512H27.0843Z" fill="white"/>
<path d="M32.4603 20.2512H31.8845V19.9391C31.68 20.1812 31.4056 20.305 31.0612 20.305C30.8082 20.305 30.593 20.2351 30.4208 20.0951C30.2486 19.9552 30.1571 19.7615 30.1571 19.5085C30.1571 19.2341 30.254 19.0295 30.4423 18.8896C30.6307 18.7497 30.8782 18.6797 31.1903 18.6797C31.4379 18.6797 31.6746 18.7174 31.8953 18.7874V18.7389C31.8953 18.5613 31.8415 18.4268 31.7338 18.3353C31.6262 18.2438 31.4701 18.1954 31.271 18.1954C31.0396 18.1954 30.7975 18.2492 30.5446 18.3568L30.3885 17.8886C30.7006 17.7487 31.0235 17.6787 31.3571 17.6787C31.7285 17.6787 32.0029 17.7702 32.1912 17.9586C32.3796 18.1469 32.4711 18.4107 32.4711 18.7551V20.262L32.4603 20.2512ZM31.8953 19.3309V19.1856C31.7231 19.1157 31.5293 19.0834 31.3141 19.0834C31.1311 19.0834 30.9858 19.121 30.8836 19.191C30.7813 19.261 30.7275 19.3632 30.7275 19.487C30.7275 19.6 30.776 19.6915 30.8674 19.7615C30.9589 19.8314 31.0773 19.8637 31.2172 19.8637C31.411 19.8637 31.5724 19.8153 31.7015 19.713C31.8307 19.6162 31.8899 19.487 31.8899 19.3255L31.8953 19.3309Z" fill="white"/>
<path d="M36.7385 20.3104C36.3618 20.3104 36.0497 20.1812 35.8021 19.9283C35.5546 19.6754 35.4254 19.3632 35.4254 18.9973V18.9865C35.4254 18.6205 35.5492 18.3084 35.8021 18.0501C36.0551 17.7918 36.3672 17.6572 36.7439 17.6572C37.1529 17.6572 37.4919 17.8025 37.761 18.0985L37.4004 18.486C37.1959 18.2761 36.9807 18.1685 36.7385 18.1685C36.5286 18.1685 36.3564 18.2492 36.2165 18.4053C36.0766 18.5613 36.0066 18.7551 36.0066 18.9757V18.9865C36.0066 19.2179 36.0766 19.4117 36.2219 19.5677C36.3672 19.7238 36.5448 19.8045 36.7708 19.8045C37.0076 19.8045 37.2228 19.6969 37.4327 19.487L37.7825 19.8314C37.6426 19.9875 37.4919 20.1059 37.3304 20.1866C37.169 20.2673 36.9699 20.3104 36.7385 20.3104Z" fill="white"/>
<path d="M40.9037 20.2512H40.3279V19.9391C40.1234 20.1812 39.8489 20.305 39.5045 20.305C39.2516 20.305 39.0363 20.2351 38.8641 20.0951C38.6919 19.9552 38.6004 19.7615 38.6004 19.5085C38.6004 19.2341 38.6973 19.0295 38.8857 18.8896C39.074 18.7497 39.3215 18.6797 39.6337 18.6797C39.8812 18.6797 40.118 18.7174 40.3386 18.7874V18.7389C40.3386 18.5613 40.2848 18.4268 40.1772 18.3353C40.0695 18.2438 39.9135 18.1954 39.7144 18.1954C39.483 18.1954 39.2408 18.2492 38.9879 18.3568L38.8318 17.8886C39.144 17.7487 39.4668 17.6787 39.8005 17.6787C40.1718 17.6787 40.4462 17.7702 40.6346 17.9586C40.8229 18.1469 40.9144 18.4107 40.9144 18.7551V20.262L40.9037 20.2512ZM40.3386 19.3309V19.1856C40.1664 19.1157 39.9727 19.0834 39.7574 19.0834C39.5745 19.0834 39.4292 19.121 39.3269 19.191C39.2247 19.261 39.1709 19.3632 39.1709 19.487C39.1709 19.6 39.2193 19.6915 39.3108 19.7615C39.4023 19.8314 39.5206 19.8637 39.6606 19.8637C39.8543 19.8637 40.0157 19.8153 40.1449 19.713C40.274 19.6162 40.3332 19.487 40.3332 19.3255L40.3386 19.3309Z" fill="white"/>
<path d="M42.0768 20.2512V17.7057H42.6472V19.4117C43.18 18.6528 43.5836 18.0878 43.8526 17.7057H44.4015V20.2512H43.8365V18.556L42.6257 20.2512H42.0768ZM43.745 17.2321C43.6105 17.3505 43.4437 17.415 43.2392 17.415C43.0347 17.415 42.8679 17.3558 42.7333 17.2321C42.5988 17.1083 42.5127 16.9468 42.4804 16.7423L42.8356 16.6724C42.9055 16.893 43.0347 17.0006 43.2338 17.0006C43.4329 17.0006 43.5674 16.893 43.632 16.6724L43.9818 16.7423C43.9495 16.9468 43.8688 17.1137 43.7342 17.2321H43.745Z" fill="white"/>
<path d="M46.1612 20.2512V18.2062H45.3433V17.7057H47.5658V18.2062H46.7478V20.2512H46.1612Z" fill="white"/>
<path d="M49.6214 20.3104C49.234 20.3104 48.9165 20.1812 48.6582 19.9229C48.3999 19.6646 48.2707 19.3525 48.2707 18.9811C48.2707 18.6098 48.3999 18.2976 48.6582 18.0393C48.9165 17.781 49.2394 17.6518 49.6268 17.6518C50.0143 17.6518 50.3318 17.781 50.5901 18.0393C50.8484 18.2976 50.9776 18.6098 50.9776 18.9811C50.9776 19.3525 50.8484 19.6592 50.5901 19.9175C50.3318 20.1759 50.0035 20.305 49.6161 20.305L49.6214 20.3104ZM49.6322 19.8045C49.8636 19.8045 50.0519 19.7238 50.1919 19.5677C50.3318 19.4117 50.4017 19.2179 50.4017 18.9865C50.4017 18.7551 50.3264 18.5667 50.1811 18.4053C50.0358 18.2492 49.8475 18.1685 49.6214 18.1685C49.3954 18.1685 49.2071 18.2492 49.0672 18.4053C48.9272 18.5613 48.8573 18.7551 48.8573 18.9865C48.8573 19.2179 48.9326 19.4063 49.0779 19.5623C49.2232 19.7238 49.4116 19.8045 49.6322 19.8045Z" fill="white"/>
<path d="M52.0592 20.2512V17.7057H53.3669C53.6198 17.7057 53.8243 17.7649 53.975 17.8779C54.1256 17.9909 54.201 18.147 54.201 18.3407C54.201 18.6044 54.0664 18.8035 53.792 18.9219C54.1418 19.0242 54.3194 19.2341 54.3194 19.557C54.3194 19.7722 54.2333 19.9391 54.0664 20.0628C53.8996 20.1866 53.6682 20.2458 53.383 20.2458H52.0646L52.0592 20.2512ZM52.6296 18.7605H53.227C53.3453 18.7605 53.4368 18.7336 53.5068 18.6744C53.5767 18.6152 53.609 18.5398 53.609 18.4483C53.609 18.3622 53.5767 18.2923 53.5175 18.2384C53.4584 18.1846 53.3615 18.1577 53.2377 18.1577H52.6296V18.7605ZM52.6296 19.7938H53.2915C53.4314 19.7938 53.5391 19.7668 53.6144 19.7023C53.6897 19.6431 53.7274 19.5623 53.7274 19.4655C53.7274 19.3686 53.6898 19.2933 53.609 19.2394C53.5283 19.1856 53.4153 19.1587 53.2646 19.1587H52.635V19.7938H52.6296Z" fill="white"/>
<path d="M55.3418 20.2512V19.5892H55.9822V20.2512H55.3418Z" fill="white"/>
<path d="M59.0872 20.2512V17.7057H59.663L60.4595 18.8842L61.2613 17.7057H61.8371V20.2512H61.2505V18.556L60.4487 19.6969L59.6523 18.5667V20.2512H59.0819H59.0872Z" fill="white"/>
<path d="M65.1843 20.2512H64.6085V19.9391C64.404 20.1812 64.1296 20.305 63.7852 20.305C63.5322 20.305 63.317 20.2351 63.1448 20.0951C62.9726 19.9552 62.8811 19.7615 62.8811 19.5085C62.8811 19.2341 62.978 19.0295 63.1663 18.8896C63.3547 18.7497 63.6022 18.6797 63.9143 18.6797C64.1619 18.6797 64.3986 18.7174 64.6193 18.7874V18.7389C64.6193 18.5613 64.5655 18.4268 64.4578 18.3353C64.3502 18.2438 64.1941 18.1954 63.995 18.1954C63.7636 18.1954 63.5215 18.2492 63.2686 18.3568L63.1125 17.8886C63.4246 17.7487 63.7475 17.6787 64.0811 17.6787C64.4525 17.6787 64.7269 17.7702 64.9152 17.9586C65.1036 18.1469 65.1951 18.4107 65.1951 18.7551V20.262L65.1843 20.2512ZM64.6193 19.3309V19.1856C64.4471 19.1157 64.2533 19.0834 64.0381 19.0834C63.8551 19.0834 63.7098 19.121 63.6076 19.191C63.5053 19.261 63.4515 19.3632 63.4515 19.487C63.4515 19.6 63.5 19.6915 63.5914 19.7615C63.6829 19.8314 63.8013 19.8637 63.9412 19.8637C64.135 19.8637 64.2964 19.8153 64.4255 19.713C64.5547 19.6162 64.6139 19.487 64.6139 19.3255L64.6193 19.3309Z" fill="white"/>
<path d="M66.3575 17.711H66.9386V18.1362C67.1646 17.8187 67.4499 17.6572 67.7997 17.6572C68.1225 17.6572 68.397 17.7756 68.6338 18.0178C68.8705 18.2546 68.9836 18.5829 68.9836 18.9865C68.9836 19.3901 68.8652 19.7076 68.6338 19.9498C68.4024 20.1866 68.1225 20.3104 67.7997 20.3104C67.4499 20.3104 67.1646 20.1597 66.9386 19.8637V21.0315H66.3575V17.711ZM67.6651 19.8045C67.8696 19.8045 68.0418 19.7292 68.1817 19.5785C68.3216 19.4278 68.3916 19.2287 68.3916 18.9811C68.3916 18.7336 68.3216 18.5452 68.1817 18.3945C68.0418 18.2438 67.8696 18.1685 67.6651 18.1685C67.4606 18.1685 67.2884 18.2438 67.1431 18.3999C66.9978 18.556 66.9225 18.7497 66.9225 18.9919C66.9225 19.2341 66.9978 19.4224 67.1431 19.5785C67.2884 19.7292 67.466 19.8099 67.6651 19.8099V19.8045Z" fill="white"/>
<path d="M70.0652 20.2512V17.7057H70.641V18.9219L71.7496 17.7057H72.433L71.4482 18.7766L72.5191 20.2512H71.8303L71.0608 19.2018L70.6464 19.6377V20.2512H70.0652Z" fill="white"/>
<path d="M74.4241 20.3104C74.0528 20.3104 73.7407 20.1866 73.4931 19.9391C73.2456 19.6915 73.1218 19.374 73.1218 18.9811C73.1218 18.6098 73.2402 18.2976 73.4716 18.0447C73.7084 17.7864 74.0044 17.6572 74.3649 17.6572C74.7524 17.6572 75.0483 17.7864 75.2636 18.0501C75.4789 18.3138 75.5865 18.6367 75.5865 19.0242C75.5865 19.0941 75.5865 19.1479 75.5757 19.1856H73.7084C73.7407 19.3901 73.8214 19.5462 73.9559 19.6592C74.0905 19.7722 74.2519 19.8314 74.4402 19.8314C74.6932 19.8314 74.9192 19.7292 75.1291 19.53L75.4681 19.8314C75.2044 20.1489 74.86 20.3104 74.4295 20.3104H74.4241ZM73.6976 18.8035H75.0053C74.9838 18.6098 74.9192 18.4483 74.8062 18.3192C74.6932 18.19 74.5425 18.1308 74.3595 18.1308C74.1766 18.1308 74.0366 18.1954 73.9183 18.3192C73.7999 18.4429 73.7299 18.6044 73.703 18.8035H73.6976Z" fill="white"/>
<path d="M77.0986 20.2512V18.2062H76.2807V17.7057H78.5032V18.2062H77.6852V20.2512H77.0986Z" fill="white"/>
<path d="M79.4503 20.2512V17.7057H80.0207V19.4117C80.5534 18.6528 80.9571 18.0878 81.2261 17.7057H81.775V20.2512H81.21V18.556L79.9992 20.2512H79.4503Z" fill="white"/>
<path d="M82.9858 20.2512V17.7057H83.567V18.7389H84.6863V17.7057H85.2675V20.2512H84.6863V19.2233H83.567V20.2512H82.9858Z" fill="white"/>
<path d="M86.4837 20.2512V17.7057H88.2865V18.2062H87.0703V20.2512H86.4837Z" fill="white"/>
<path d="M16.5208 0.0324707H12.9045V14.1056H23.2744V10.9304H16.5208V0.0324707Z" fill="white"/>
<path d="M44.423 9.19751L40.9251 0.0324707H36.9268L42.674 14.1864H46.1127L51.8815 0.0324707H47.937L44.423 9.19751Z" fill="white"/>
<path d="M75.5972 0.0324707V7.77136L69.4463 0.0324707H66.3521V14.1056H69.9091V6.32368L76.1407 14.1056H79.1381V0.0324707H75.5972Z" fill="white"/>
<path d="M64.1405 0.0324707H53.4478V3.20768H64.1405V0.0324707Z" fill="white"/>
<path d="M56.6228 7.30853L53.4478 5.48413V8.65934H64.1405V5.48413H56.6228V7.30853Z" fill="white"/>
<path d="M56.6228 12.7551L53.4478 10.9307V14.1059H64.1405V10.9307H56.6228V12.7551Z" fill="white"/>
<path d="M0 0.0324707V3.20768V5.48414V8.65934V10.9304V14.1056H3.175H11.0372V10.9304H3.175V8.65934H11.0372V5.48414H3.175V3.20768H11.0372V0.0324707H3.175H0Z" fill="white"/>
<path d="M25.1472 0.0324707V3.20768V5.48414V8.65934V10.9304V14.1056H28.3222H35.84V10.9304H28.3222V8.65934H35.84V5.48414H28.3222V3.20768H35.84V0.0324707H28.3222H25.1472Z" fill="white"/>
</svg>
