<svg width="33" height="30" viewBox="0 0 33 30" fill="none" xmlns="http://www.w3.org/2000/svg">
<path d="M15.634 1C13.569 1 11.8901 2.67882 11.8901 4.74391V10.9466C11.8901 13.0117 13.569 14.6905 15.634 14.6905H23.263V24.6965C23.263 26.7616 24.9418 28.4405 27.0069 28.4405H27.6754C29.7405 28.4405 31.4194 26.7616 31.4194 24.6965V8.78495C31.4194 4.48392 27.9354 1 23.6344 1H15.634V1Z" stroke="#FF0000" stroke-width="2" stroke-linecap="round" stroke-linejoin="round"/>
<path d="M11.8899 12.0385H8.30201C6.23691 12.0385 4.55811 10.3597 4.55811 8.29463V7.41065C4.55811 5.34556 6.23691 3.66675 8.30201 3.66675H11.8899" stroke="#FF0000" stroke-width="2" stroke-linecap="round" stroke-linejoin="round"/>
<path d="M4.5582 7.84888H1" stroke="#FF0000" stroke-width="2" stroke-linecap="round" stroke-linejoin="round"/>
<path d="M23.2705 14.6904H31.4269" stroke="#FF0000" stroke-width="2" stroke-linecap="round" stroke-linejoin="round"/>
<path d="M20.3062 14.6904V21.1085H23.2701" stroke="#FF0000" stroke-width="2" stroke-linecap="round" stroke-linejoin="round"/>
<path d="M17.543 7.18042H26.7839" stroke="#FF0000" stroke-width="2" stroke-linecap="round" stroke-linejoin="round"/>
</svg>
