<svg width="44" height="40" viewBox="0 0 44 40" fill="none" xmlns="http://www.w3.org/2000/svg">
<path d="M20.9667 1C18.149 1 15.8584 3.29063 15.8584 6.10829V14.5714C15.8584 17.3891 18.149 19.6797 20.9667 19.6797H31.3758V33.3322C31.3758 36.1498 33.6664 38.4405 36.4841 38.4405H37.3963C40.2139 38.4405 42.5046 36.1498 42.5046 33.3322V11.622C42.5046 5.75355 37.751 1 31.8826 1H20.9667V1Z" stroke="white" stroke-width="2" stroke-linecap="round" stroke-linejoin="round"/>
<path d="M15.8592 16.0614H10.9637C8.14608 16.0614 5.85547 13.7708 5.85547 10.9531V9.74701C5.85547 6.92934 8.14608 4.63873 10.9637 4.63873H15.8592" stroke="white" stroke-width="2" stroke-linecap="round" stroke-linejoin="round"/>
<path d="M5.85489 10.3448H1" stroke="white" stroke-width="2" stroke-linecap="round" stroke-linejoin="round"/>
<path d="M31.3867 19.6796H42.5155" stroke="white" stroke-width="2" stroke-linecap="round" stroke-linejoin="round"/>
<path d="M27.3428 19.6796V28.4366H31.3868" stroke="white" stroke-width="2" stroke-linecap="round" stroke-linejoin="round"/>
<path d="M23.5713 9.4328H36.1798" stroke="white" stroke-width="2" stroke-linecap="round" stroke-linejoin="round"/>
</svg>
