<svg display="none" xmlns="http://www.w3.org/2000/svg">

	<symbol id="search" viewBox="0 0 27 27">
		<path
			d="M25.7709 25.7709C25.5399 26.002 25.2656 26.1854 24.9637 26.3105C24.6618 26.4356 24.3382 26.5 24.0114 26.5C23.6846 26.5 23.361 26.4356 23.0591 26.3105C22.7572 26.1854 22.4829 26.002 22.2519 25.7709L17.8603 21.3792C16.0535 22.5356 13.9182 23.2275 11.6137 23.2275C5.19964 23.2275 0 18.0278 0 11.6137C0 5.19964 5.19964 0 11.6137 0C18.0278 0 23.2275 5.19964 23.2275 11.6137C23.2275 13.9182 22.5356 16.0535 21.3792 17.8603L25.7709 22.2519C26.002 22.4829 26.1854 22.7572 26.3105 23.0591C26.4356 23.361 26.5 23.6846 26.5 24.0114C26.5 24.3382 26.4356 24.6618 26.3105 24.9637C26.1854 25.2656 26.002 25.5399 25.7709 25.7709ZM11.6137 3.31821C7.03295 3.31821 3.31821 7.03129 3.31821 11.6137C3.31821 16.1962 7.03295 19.9093 11.6137 19.9093C16.1962 19.9093 19.9093 16.1962 19.9093 11.6137C19.9093 7.03129 16.1962 3.31821 11.6137 3.31821Z" />
	</symbol>

	<symbol id="burger" viewBox="0 0 25 23">
		<path
			d="M0 1.71277C0 0.766832 0.816148 0 1.82292 0H23.1771C24.1839 0 25 0.766832 25 1.71277C25 2.6587 24.1839 3.42553 23.1771 3.42553H1.82292C0.816148 3.42553 0 2.6587 0 1.71277Z" />
		<path
			d="M0 11.5C0 10.5541 0.816148 9.78723 1.82292 9.78723H23.1771C24.1839 9.78723 25 10.5541 25 11.5C25 12.4459 24.1839 13.2128 23.1771 13.2128H1.82292C0.816148 13.2128 0 12.4459 0 11.5Z" />
		<path
			d="M0 21.2872C0 20.3413 0.816148 19.5745 1.82292 19.5745H23.1771C24.1839 19.5745 25 20.3413 25 21.2872C25 22.2332 24.1839 23 23.1771 23H1.82292C0.816148 23 0 22.2332 0 21.2872Z" />
	</symbol>

	<symbol id="location" viewBox="0 0 14 19">
		<path fill-rule="evenodd" clip-rule="evenodd"
			d="M7 19C7 19 14 11.5409 14 7.43478C14 3.32867 10.866 0 7 0C3.13401 0 0 3.32867 0 7.43478C0 11.5409 7 19 7 19ZM7 10.3261C8.50344 10.3261 9.72222 9.03161 9.72222 7.43478C9.72222 5.83796 8.50344 4.54348 7 4.54348C5.49656 4.54348 4.27778 5.83796 4.27778 7.43478C4.27778 9.03161 5.49656 10.3261 7 10.3261Z" />
	</symbol>

	<symbol id="mail" viewBox="0 0 23 17">
		<path
			d="M19.6613 0H3.33871C2.45353 0.00099638 1.60489 0.358261 0.97897 0.993409C0.353053 1.62856 0.000981897 2.48972 0 3.38795V13.612C0 15.4799 1.49797 17 3.33871 17H19.6613C21.502 17 23 15.4799 23 13.612V3.38795C23 1.52006 21.502 0 19.6613 0ZM18.6745 2.25864L12.19 7.4535C11.7819 7.77724 11.2181 7.77724 10.81 7.4535L5.54226 3.22985L4.32771 2.25864H18.6745ZM19.6613 14.7414H3.33871C2.72513 14.7414 2.22581 14.2347 2.22581 13.612V3.45948L9.43 9.23029C10.0384 9.71966 10.7729 9.96058 11.5 9.96058C12.2271 9.96058 12.9616 9.71966 13.57 9.23029L20.7742 3.46174V13.612C20.7742 14.2347 20.2749 14.7414 19.6613 14.7414Z" />
	</symbol>

	<symbol id="next" viewBox="0 0 9 16">
		<path d="M1 1L8 8L1 15" stroke-width="2" stroke-linecap="round" stroke-linejoin="round" />
	</symbol>

	<symbol id="arrow-bottom" viewBox="0 0 18 11">
		<path d="M17 1.73438L9 9.73437L1 1.73438" stroke-width="2" stroke-linecap="round"
			stroke-linejoin="round" />
	</symbol>

</svg>