<svg width="27" height="19" viewBox="0 0 27 19" fill="none" xmlns="http://www.w3.org/2000/svg">
<path fill-rule="evenodd" clip-rule="evenodd" d="M22.707 0.158909C24.3253 0.252182 25.1201 0.497454 25.8525 1.83091C26.6152 3.16264 27 5.45645 27 9.49655V9.51036C27 13.5315 26.6152 15.8425 25.8542 17.1605C25.1218 18.4939 24.327 18.7357 22.7087 18.848C21.0904 18.943 17.0252 19 13.5034 19C9.97481 19 5.90794 18.943 4.29131 18.8463C2.67638 18.734 1.88156 18.4922 1.14244 17.1587C0.388125 15.8408 0 13.5297 0 9.50864V9.49482C0 5.45645 0.388125 3.16264 1.14244 1.83091C1.88156 0.495727 2.67806 0.252182 4.293 0.157182C5.90794 0.0466365 9.97481 0 13.5034 0C17.0252 0 21.0904 0.0466364 22.707 0.158909ZM18 9.5L10 5V14L18 9.5Z" fill="#FF0000"/>
</svg>
